<?xml version="1.0" standalone="no"?>
<svg xmlns:xlink="http://www.w3.org/1999/xlink" id="wave" style="transform:rotate(180deg); transition: 0.3s" viewBox="0 0 1440 490" version="1.1" xmlns="http://www.w3.org/2000/svg"><defs><linearGradient id="sw-gradient-0" x1="0" x2="0" y1="1" y2="0"><stop stop-color="rgba(69, 124, 228, 1)" offset="0%"/><stop stop-color="rgba(167.71, 219.715, 242.165, 1)" offset="100%"/></linearGradient></defs><path style="transform:translate(0, 0px); opacity:1" fill="url(#sw-gradient-0)" d="M0,343L21.8,326.7C43.6,310,87,278,131,261.3C174.5,245,218,245,262,269.5C305.5,294,349,343,393,351.2C436.4,359,480,327,524,318.5C567.3,310,611,327,655,326.7C698.2,327,742,310,785,326.7C829.1,343,873,392,916,359.3C960,327,1004,212,1047,187.8C1090.9,163,1135,229,1178,285.8C1221.8,343,1265,392,1309,351.2C1352.7,310,1396,180,1440,138.8C1483.6,98,1527,147,1571,163.3C1614.5,180,1658,163,1702,163.3C1745.5,163,1789,180,1833,196C1876.4,212,1920,229,1964,220.5C2007.3,212,2051,180,2095,204.2C2138.2,229,2182,310,2225,310.3C2269.1,310,2313,229,2356,171.5C2400,114,2444,82,2487,98C2530.9,114,2575,180,2618,220.5C2661.8,261,2705,278,2749,245C2792.7,212,2836,131,2880,106.2C2923.6,82,2967,114,3011,130.7C3054.5,147,3098,147,3120,147L3141.8,147L3141.8,490L3120,490C3098.2,490,3055,490,3011,490C2967.3,490,2924,490,2880,490C2836.4,490,2793,490,2749,490C2705.5,490,2662,490,2618,490C2574.5,490,2531,490,2487,490C2443.6,490,2400,490,2356,490C2312.7,490,2269,490,2225,490C2181.8,490,2138,490,2095,490C2050.9,490,2007,490,1964,490C1920,490,1876,490,1833,490C1789.1,490,1745,490,1702,490C1658.2,490,1615,490,1571,490C1527.3,490,1484,490,1440,490C1396.4,490,1353,490,1309,490C1265.5,490,1222,490,1178,490C1134.5,490,1091,490,1047,490C1003.6,490,960,490,916,490C872.7,490,829,490,785,490C741.8,490,698,490,655,490C610.9,490,567,490,524,490C480,490,436,490,393,490C349.1,490,305,490,262,490C218.2,490,175,490,131,490C87.3,490,44,490,22,490L0,490Z"/></svg>